<svg width="153" height="136" viewBox="0 0 153 136" fill="none" xmlns="http://www.w3.org/2000/svg">
<path d="M86.2236 5.65625L151.338 118.434C152.331 120.154 152.854 122.105 152.854 124.091C152.854 126.076 152.331 128.027 151.338 129.747C150.346 131.466 148.918 132.894 147.198 133.887C145.478 134.88 143.527 135.403 141.542 135.403H11.3122C9.32648 135.403 7.37574 134.88 5.65606 133.887C3.93639 132.894 2.50836 131.466 1.51552 129.747C0.52267 128.027 -1.26115e-05 126.076 2.28226e-10 124.091C1.2612e-05 122.105 0.52272 120.154 1.51559 118.434L66.6303 5.65625C70.9819 -1.88542 81.8645 -1.88542 86.2236 5.65625ZM76.427 95.0401C74.4268 95.0401 72.5085 95.8347 71.0942 97.249C69.6799 98.6633 68.8853 100.582 68.8853 102.582C68.8853 104.582 69.6799 106.5 71.0942 107.915C72.5085 109.329 74.4268 110.123 76.427 110.123C78.4271 110.123 80.3454 109.329 81.7597 107.915C83.1741 106.5 83.9686 104.582 83.9686 102.582C83.9686 100.582 83.1741 98.6633 81.7597 97.249C80.3454 95.8347 78.4271 95.0401 76.427 95.0401ZM76.427 42.2484C74.5797 42.2487 72.7969 42.9268 71.4165 44.1543C70.0361 45.3818 69.1542 47.0732 68.9381 48.9077L68.8853 49.7901V79.9568C68.8874 81.879 69.6235 83.7278 70.943 85.1256C72.2626 86.5233 74.0661 87.3644 75.985 87.4771C77.9039 87.5897 79.7934 86.9654 81.2674 85.7317C82.7415 84.4979 83.6888 82.7479 83.9158 80.8391L83.9686 79.9568V49.7901C83.9686 47.7899 83.1741 45.8717 81.7597 44.4573C80.3454 43.043 78.4271 42.2484 76.427 42.2484Z" fill="#EE404C"/>
</svg>
